<?xml version="1.0" encoding="UTF-8" standalone="no"?>
<!-- Created with Inkscape (http://www.inkscape.org/) -->

<svg
   xmlns:dc="http://purl.org/dc/elements/1.1/"
   xmlns:cc="http://creativecommons.org/ns#"
   xmlns:rdf="http://www.w3.org/1999/02/22-rdf-syntax-ns#"
   xmlns:svg="http://www.w3.org/2000/svg"
   xmlns="http://www.w3.org/2000/svg"
   xmlns:sodipodi="http://sodipodi.sourceforge.net/DTD/sodipodi-0.dtd"
   xmlns:inkscape="http://www.inkscape.org/namespaces/inkscape"
   id="svg3336"
   version="1.1"
   inkscape:version="0.91 r13725"
   width="1199.0625"
   height="210"
   viewBox="0 0 1199.0625 210"
   sodipodi:docname="RifleSilhouette.svg">
  <metadata
     id="metadata3342">
    <rdf:RDF>
      <cc:Work
         rdf:about="">
        <dc:format>image/svg+xml</dc:format>
        <dc:type
           rdf:resource="http://purl.org/dc/dcmitype/StillImage" />
        <dc:title></dc:title>
      </cc:Work>
    </rdf:RDF>
  </metadata>
  <defs
     id="defs3340" />
  <sodipodi:namedview
     pagecolor="#ffffff"
     bordercolor="#666666"
     borderopacity="1"
     objecttolerance="10"
     gridtolerance="10"
     guidetolerance="10"
     inkscape:pageopacity="0"
     inkscape:pageshadow="2"
     inkscape:window-width="1600"
     inkscape:window-height="837"
     id="namedview3338"
     showgrid="false"
     inkscape:zoom="0.95024977"
     inkscape:cx="599.41943"
     inkscape:cy="105.29258"
     inkscape:window-x="-8"
     inkscape:window-y="-8"
     inkscape:window-maximized="1"
     inkscape:current-layer="svg3336" />
  <path
     style="fill:#000000"
     d="M 0.569052,208.51707 C -0.51325645,205.69662 0.02156826,204.32987 5.0832493,196.98098 21.42801,173.25058 28.707838,141.77968 22.348288,122.34375 19.574284,113.86589 14.795456,103.3564 11.953125,99.482944 8.2200824,94.395647 10.107312,91.876679 17.6548,91.872683 c 9.935203,-0.0053 72.32291,-5.315359 98.5952,-8.391884 8.50781,-0.996276 26.22656,-2.711477 39.375,-3.811557 13.14844,-1.100079 35.00323,-3.233504 48.5662,-4.740943 35.60491,-3.957262 36.3674,-3.883025 39.57169,3.852813 0.60295,1.455663 1.70039,2.87848 2.43876,3.161815 1.95842,0.751522 9.78232,-0.484276 9.18499,-1.450785 -2.27615,-3.682888 4.57103,-7.344051 34.79736,-18.606035 20.24433,-7.542802 23.87787,-8.507401 23.87924,-6.339232 4e-4,0.644531 1.24844,-1.46553 2.77341,-4.689024 3.11043,-6.574858 8.76165,-12.364327 14.91661,-15.281528 9.74262,-4.617608 12.03378,-9.42542 7.09619,-14.890749 -3.75391,-4.155131 -3.74928,-6.052788 0.0171,-6.998086 3.3144,-0.83186 8.23624,1.62077 11.77919,5.869749 7.05979,8.46663 8.0426,9.37524 10.20969,9.438864 1.24393,0.03652 4.39749,-1.304695 7.00792,-2.980476 l 4.74624,-3.046875 62.36709,-0.598222 c 34.30192,-0.329022 66.7968,-0.860579 72.21086,-1.181236 16.62027,-0.984369 166.3641,-2.455501 344.0625,-3.380185 93.07031,-0.484306 199.3828,-1.170259 236.25,-1.524337 l 67.0313,-0.643782 0,-3.367368 c 0,-2.9900847 0.3413,-3.4678709 3.0468,-4.2643667 2.7444,-0.8079346 3.0469,-1.2500823 3.0469,-4.453125 l 0,-3.5561283 9.8438,0 9.8437,0 0,3.3482143 c 0,1.8415179 0.671,4.0192072 1.4911,4.8393095 0.9605,0.9604732 1.3611,2.6047402 1.1257,4.6205352 l -0.3653,3.129441 7.2486,0 c 8.0462,0 7.7238,-0.275452 8.777,7.5 0.3522,2.600122 0.056,5.901292 -0.772,8.604084 -1.0476,3.420043 -1.1179,5.229943 -0.3191,8.222405 0.8059,3.019412 0.7321,4.682009 -0.3465,7.802166 l -1.3707,3.965095 -109.2188,0.663167 c -271.30444,1.647336 -317.87857,2.295202 -319.38277,4.442755 -1.69209,2.415805 -5.45585,4.395253 -10.75313,5.655324 -7.1039,1.689812 -110.04233,5.769197 -190.1766,7.536576 -45.73901,1.008784 -51.39866,1.373563 -57.1875,3.685885 -3.68441,1.471719 -8.62653,1.760969 -39.01945,2.28371 -41.40783,0.712193 -47.30845,1.309871 -56.96101,5.76963 -3.90871,1.805936 -8.31482,3.525133 -9.79135,3.82044 -2.16059,0.432117 -2.60696,0.94309 -2.28682,2.617776 0.30224,1.581083 -0.64112,2.932159 -3.92782,5.625349 -2.60152,2.131763 -5.40617,5.685113 -7.0367,8.915198 -6.34999,12.57925 -17.78052,19.43716 -31.4456,18.86623 -14.34074,-0.59916 -14.28348,-0.60613 -16.32412,1.98811 -1.99421,2.53523 -3.62498,3.29331 -12.73838,5.92156 -9.20036,2.65333 -14.2245,5.98425 -22.97929,15.23488 -13.64064,14.41324 -22.48407,15.12723 -30.58138,2.4691 -3.47331,-5.42966 -5.03308,-6.30415 -5.03308,-2.82183 0,2.80026 -3.61953,8.22202 -6.42157,9.61899 -1.18059,0.58859 -2.77388,1.96583 -3.54064,3.06053 -2.0335,2.90322 -7.22105,2.60255 -13.08026,-0.75815 -4.41965,-2.53499 -7.17207,-5.11545 -16.95934,-15.89978 l -3.73641,-4.11705 -10.24026,3.32156 c -5.63215,1.82686 -20.36527,6.57956 -32.74027,10.56155 -12.375,3.98198 -27.35156,8.90503 -33.28125,10.94008 -5.92969,2.03506 -15.42187,5.12856 -21.09375,6.87444 -9.39165,2.89088 -57.006536,18.62402 -87.1875,28.80892 C 5.9040437,209.51863 1.4195461,210.73342 0.569052,208.51707 Z M 298.74507,143.10236 c 7.72473,-8.41124 16.5548,-14.68243 26.44631,-18.78241 12.12166,-5.02435 16.18556,-10.95611 11.79786,-17.22043 -8.64389,-12.340883 -61.9484,23.19894 -55.39788,36.93552 3.45868,7.25294 9.96087,6.8994 17.15371,-0.93268 z m 68.24635,-32.3724 c 8.24189,-3.66588 15.48193,-14.334523 15.49942,-22.839335 l 0.009,-4.453125 -5.85938,0.01032 c -7.98917,0.01407 -12.89062,0.923936 -12.89062,2.392921 0,0.671224 -0.94922,1.508741 -2.10938,1.861147 -9.10044,2.764325 -14.44889,13.25257 -10.32132,20.23999 1.38311,2.3414 1.42963,2.88737 0.30532,3.58223 -4.00945,2.47797 9.59033,1.77515 15.3668,-0.79414 z m -22.68988,-8.00822 c -0.25746,-2.28429 0.0124,-5.531659 0.59968,-7.216374 1.9538,-5.604668 -0.02,-5.993372 -9.99779,-1.968964 l -8.66491,3.494848 4.78575,0.286575 c 4.33971,0.259866 5.19213,0.709612 9.14636,4.825695 2.39834,2.49651 4.41426,4.5824 4.47983,4.63529 0.0655,0.0529 -0.0914,-1.77277 -0.34892,-4.05707 z"
     id="path3346"
     inkscape:connector-curvature="0" />
</svg>
